<svg width="30" height="30" viewBox="0 0 30 30" fill="none" xmlns="http://www.w3.org/2000/svg">
<path fill-rule="evenodd" clip-rule="evenodd" d="M24.33 21.0154C25.896 15.4052 22.188 9.61062 16.0965 8.0439C9.2175 6.2727 -0.546002 10.8721 1.626 16.7717C2.346 18.7229 3.732 19.1794 6.3465 19.2154L6.51 19.2183C7.8915 19.2341 8.28 19.3205 8.397 19.502C8.5875 19.8015 8.5905 20.2781 8.376 21.59C8.274 22.2092 8.241 22.4252 8.202 22.7636C7.9635 24.8242 8.3265 26.4313 9.732 27.8857C14.124 32.426 22.5615 27.3485 24.33 21.0154ZM4.455 15.8098C3.3615 12.8434 10.359 9.54726 15.3195 10.8231C19.845 11.9881 22.5585 16.2289 21.432 20.2681C20.175 24.7724 14.259 28.3321 11.931 25.9244C11.211 25.1813 11.0325 24.3865 11.184 23.0804C11.2155 22.801 11.2455 22.6081 11.34 22.0349C11.6685 20.0233 11.664 19.1045 10.953 17.9943C10.062 16.6018 9.003 16.3671 6.5475 16.3369L6.3885 16.334C4.9425 16.3153 4.599 16.2015 4.4535 15.8098H4.455Z" fill="#222A36"/>
<path d="M9 15.3188C8.50272 15.3188 8.02581 15.1291 7.67417 14.7915C7.32254 14.454 7.125 13.9961 7.125 13.5188C7.125 13.0414 7.32254 12.5835 7.67417 12.246C8.02581 11.9084 8.50272 11.7188 9 11.7188C9.49728 11.7188 9.97419 11.9084 10.3258 12.246C10.6775 12.5835 10.875 13.0414 10.875 13.5188C10.875 13.9961 10.6775 14.454 10.3258 14.7915C9.97419 15.1291 9.49728 15.3188 9 15.3188Z" fill="#222A36"/>
<path d="M14.625 15.3188C14.1277 15.3188 13.6508 15.1291 13.2992 14.7915C12.9475 14.454 12.75 13.9961 12.75 13.5188C12.75 13.0414 12.9475 12.5835 13.2992 12.246C13.6508 11.9084 14.1277 11.7188 14.625 11.7188C15.1223 11.7188 15.5992 11.9084 15.9508 12.246C16.3025 12.5835 16.5 13.0414 16.5 13.5188C16.5 13.9961 16.3025 14.454 15.9508 14.7915C15.5992 15.1291 15.1223 15.3188 14.625 15.3188Z" fill="#222A36"/>
<path d="M18.375 19.6387C17.8777 19.6387 17.4008 19.4491 17.0492 19.1115C16.6975 18.7739 16.5 18.3161 16.5 17.8387C16.5 17.3613 16.6975 16.9035 17.0492 16.5659C17.4008 16.2283 17.8777 16.0387 18.375 16.0387C18.8723 16.0387 19.3492 16.2283 19.7008 16.5659C20.0525 16.9035 20.25 17.3613 20.25 17.8387C20.25 18.3161 20.0525 18.7739 19.7008 19.1115C19.3492 19.4491 18.8723 19.6387 18.375 19.6387Z" fill="#222A36"/>
<path d="M16.125 24.6787C15.6277 24.6787 15.1508 24.4891 14.7992 24.1515C14.4475 23.814 14.25 23.3561 14.25 22.8787C14.25 22.4013 14.4475 21.9435 14.7992 21.6059C15.1508 21.2684 15.6277 21.0787 16.125 21.0787C16.6223 21.0787 17.0992 21.2684 17.4508 21.6059C17.8025 21.9435 18 22.4013 18 22.8787C18 23.3561 17.8025 23.814 17.4508 24.1515C17.0992 24.4891 16.6223 24.6787 16.125 24.6787Z" fill="#222A36"/>
<path d="M21.555 6.1099C21.7329 6.01842 21.9281 5.96234 22.1291 5.94499C22.33 5.92765 22.5326 5.94941 22.7246 6.00897C22.9166 6.06852 23.0941 6.16466 23.2465 6.29161C23.3989 6.41856 23.523 6.57373 23.6115 6.74782L29.751 18.8438C29.8535 19.0612 29.8659 19.308 29.7857 19.5339C29.7055 19.7598 29.5387 19.9479 29.3192 20.0599C29.0997 20.172 28.844 20.1996 28.6041 20.1371C28.3641 20.0747 28.158 19.9268 28.0275 19.7237L20.9655 8.10286C20.864 7.93569 20.7987 7.75056 20.7735 7.55857C20.7483 7.36658 20.7638 7.17169 20.819 6.98558C20.8742 6.79947 20.9679 6.62598 21.0947 6.47551C21.2214 6.32503 21.3785 6.20068 21.5565 6.1099H21.555Z" fill="#222A36"/>
<path fill-rule="evenodd" clip-rule="evenodd" d="M18.8055 5.93568C19.536 7.25328 20.7645 7.62192 21.9525 7.01568C23.139 6.41088 23.5095 5.22576 22.779 3.90816C21.945 2.39904 20.157 1.03104 18.972 1.6344C17.787 2.2392 17.97 4.42656 18.807 5.93568H18.8055ZM20.13 5.25888C19.8644 4.74687 19.7016 4.19144 19.65 3.6216C19.6277 3.38338 19.6367 3.14341 19.677 2.90736L19.704 2.92032C19.779 2.95488 20.0115 3.05856 20.3085 3.28608C20.7615 3.63312 21.2115 4.14432 21.4545 4.58352C21.798 5.20272 21.7005 5.51376 21.2475 5.7456C20.7975 5.976 20.4735 5.87808 20.13 5.26032V5.25888Z" fill="#222A36"/>
</svg>
